<svg xmlns="http://www.w3.org/2000/svg" viewBox="0 10.800000190734863 293.25 36.400001525878906" data-asc="0.93" width="293.25" height="36.400001525878906"><defs/><g fill="#ff7b00"><g transform="translate(0, 0)"><path d="M12.90 46.50L12.90 12.50Q12.15 12.50 9.80 12.80L0 14.05L0 11.50L29.20 11.50L29.20 14.05L19.40 12.80Q17.05 12.50 16.30 12.50L16.30 46.50L12.90 46.50ZM37.30 46.50L37.30 11.50L52.55 11.50L52.55 13.95L43.80 12.80Q41.50 12.50 40.70 12.50L40.70 27.75Q41.35 27.75 43.80 27.60L52 27.10L52 29.40L43.80 28.90Q41.35 28.75 40.70 28.75L40.70 45.50Q41.60 45.50 43.85 45.20L52.70 44.05L52.70 46.50L37.30 46.50ZM58.30 11.50L61.95 11.50L74.20 42.10L74.50 42.10L82.50 22.30L78.15 11.50L81.80 11.50L94 42L94.30 42L104.40 11.50L108.05 11.50L93.65 47.20L92.55 47.20L83.20 23.95L73.80 47.20L72.70 47.20L58.30 11.50ZM112.85 29Q112.85 25.15 114.23 21.82Q115.60 18.50 118.08 16.02Q120.55 13.55 123.88 12.17Q127.20 10.80 131.05 10.80Q134.90 10.80 138.23 12.17Q141.55 13.55 144.03 16.02Q146.50 18.50 147.88 21.82Q149.25 25.15 149.25 29Q149.25 32.85 147.88 36.17Q146.50 39.50 144.03 41.98Q141.55 44.45 138.23 45.83Q134.90 47.20 131.05 47.20Q127.20 47.20 123.88 45.83Q120.55 44.45 118.08 41.98Q115.60 39.50 114.23 36.17Q112.85 32.85 112.85 29M116.65 29Q116.65 34.10 118.45 37.92Q120.25 41.75 123.50 43.88Q126.75 46 131.05 46Q135.35 46 138.60 43.88Q141.85 41.75 143.65 37.90Q145.45 34.05 145.45 29Q145.45 23.95 143.65 20.13Q141.85 16.30 138.60 14.15Q135.35 12 131.05 12Q126.75 12 123.53 14.13Q120.30 16.25 118.48 20.07Q116.65 23.90 116.65 29ZM159.75 46.50L159.75 11.50L170.75 11.50Q176.55 11.50 180.85 13.70Q185.15 15.90 187.55 19.82Q189.95 23.75 189.95 29Q189.95 34.25 187.55 38.17Q185.15 42.10 180.85 44.30Q176.55 46.50 170.75 46.50L159.75 46.50M170.75 12.70L163.15 12.70L163.15 45.30L170.75 45.30Q178 45.30 182.07 41Q186.15 36.70 186.15 29Q186.15 21.30 182.07 17Q178 12.70 170.75 12.70ZM200.45 11.50L207.15 11.50Q212.45 11.50 215.38 13.73Q218.30 15.95 218.30 19.95Q218.30 23.05 216.47 25.10Q214.65 27.15 211.20 27.85L211.20 28.15Q214.50 28.80 216.60 31.25Q218.70 33.70 219.75 37.30Q220.70 40.60 221.63 42.42Q222.55 44.25 223.67 45.05Q224.80 45.85 226.35 46.20L226.35 46.50L224.30 46.50Q222.10 46.50 220.67 45.70Q219.25 44.90 218.25 43Q217.25 41.10 216.35 37.75Q214.90 32.60 212.50 30.45Q210.10 28.30 206.65 28.30L206.35 28.30L206.35 27.40L206.65 27.40Q214.70 27.40 214.70 20Q214.70 12.70 207.15 12.70L203.85 12.70L203.85 46.50L200.45 46.50L200.45 11.50ZM229.05 29Q229.05 25.15 230.42 21.82Q231.80 18.50 234.27 16.02Q236.75 13.55 240.07 12.17Q243.40 10.80 247.25 10.80Q251.10 10.80 254.42 12.17Q257.75 13.55 260.22 16.02Q262.70 18.50 264.07 21.82Q265.45 25.15 265.45 29Q265.45 32.85 264.07 36.17Q262.70 39.50 260.22 41.98Q257.75 44.45 254.42 45.83Q251.10 47.20 247.25 47.20Q243.40 47.20 240.07 45.83Q236.75 44.45 234.27 41.98Q231.80 39.50 230.42 36.17Q229.05 32.85 229.05 29M232.85 29Q232.85 34.10 234.65 37.92Q236.45 41.75 239.70 43.88Q242.95 46 247.25 46Q251.55 46 254.80 43.88Q258.05 41.75 259.85 37.90Q261.65 34.05 261.65 29Q261.65 23.95 259.85 20.13Q258.05 16.30 254.80 14.15Q251.55 12 247.25 12Q242.95 12 239.72 14.13Q236.50 16.25 234.67 20.07Q232.85 23.90 232.85 29ZM272.90 45.40L273.20 42.40L273.50 42.40Q275.45 44.10 277.90 45.05Q280.35 46 282.75 46Q286.15 46 288.25 44.13Q290.35 42.25 290.35 39.10Q290.35 37.35 289.57 35.85Q288.80 34.35 287.02 32.80Q285.25 31.25 282.15 29.45Q280 28.20 278.05 26.82Q276.10 25.45 274.85 23.63Q273.60 21.80 273.60 19.25Q273.60 15.45 276.35 13.13Q279.10 10.80 283.60 10.80Q285.60 10.80 287.90 11.23Q290.20 11.65 291.45 12.30L291.20 15.10L290.90 15.10Q288.05 12 283.60 12Q280.40 12 278.45 13.63Q276.50 15.25 276.50 18Q276.50 20.05 277.57 21.52Q278.65 23 280.35 24.17Q282.05 25.35 284 26.45Q286.25 27.75 288.38 29.20Q290.50 30.65 291.88 32.67Q293.25 34.70 293.25 37.75Q293.25 40.55 291.95 42.67Q290.65 44.80 288.27 46Q285.90 47.20 282.75 47.20Q280.75 47.20 278.05 46.70Q275.35 46.20 272.90 45.40Z"/></g></g></svg>